<mxfile host="app.diagrams.net" modified="2022-05-29T11:44:53.268Z" agent="5.0 (X11)" etag="fchPBR6mE1nV1Gtnb3xZ" version="18.0.4" type="github" pages="2">
  <diagram id="Z7pADbLTmu53ZLSDr5bz" name="Page-1">
    <mxGraphModel dx="633" dy="1295" grid="1" gridSize="10" guides="1" tooltips="1" connect="1" arrows="1" fold="1" page="1" pageScale="1" pageWidth="850" pageHeight="1100" math="0" shadow="0">
      <root>
        <mxCell id="0" />
        <mxCell id="1" parent="0" />
        <mxCell id="l2DXAUE0Y5XsdZJ5gT1E-1" value="" style="endArrow=none;html=1;rounded=0;fillColor=#f5f5f5;strokeColor=#666666;startArrow=openThin;startFill=0;endFill=0;" edge="1" parent="1">
          <mxGeometry width="50" height="50" relative="1" as="geometry">
            <mxPoint x="380" y="720" as="sourcePoint" />
            <mxPoint x="380" y="320" as="targetPoint" />
          </mxGeometry>
        </mxCell>
        <mxCell id="l2DXAUE0Y5XsdZJ5gT1E-2" value="" style="endArrow=classic;html=1;rounded=0;fillColor=#f5f5f5;strokeColor=#666666;" edge="1" parent="1">
          <mxGeometry width="50" height="50" relative="1" as="geometry">
            <mxPoint x="380" y="320" as="sourcePoint" />
            <mxPoint x="760" y="320" as="targetPoint" />
          </mxGeometry>
        </mxCell>
        <mxCell id="l2DXAUE0Y5XsdZJ5gT1E-3" value="x" style="text;html=1;strokeColor=none;fillColor=none;align=center;verticalAlign=middle;whiteSpace=wrap;rounded=0;" vertex="1" parent="1">
          <mxGeometry x="710" y="330" width="60" height="30" as="geometry" />
        </mxCell>
        <mxCell id="l2DXAUE0Y5XsdZJ5gT1E-4" value="y" style="text;html=1;strokeColor=none;fillColor=none;align=center;verticalAlign=middle;whiteSpace=wrap;rounded=0;" vertex="1" parent="1">
          <mxGeometry x="320" y="320" width="60" height="30" as="geometry" />
        </mxCell>
        <mxCell id="l2DXAUE0Y5XsdZJ5gT1E-5" value="A(x&lt;font size=&quot;1&quot;&gt;&lt;sub style=&quot;font-size: 8px;&quot;&gt;1&lt;/sub&gt;&lt;/font&gt;, y&lt;font size=&quot;1&quot;&gt;&lt;sub style=&quot;font-size: 8px;&quot;&gt;1&lt;/sub&gt;&lt;/font&gt;)" style="text;html=1;strokeColor=none;fillColor=none;align=center;verticalAlign=middle;whiteSpace=wrap;rounded=0;" vertex="1" parent="1">
          <mxGeometry x="350" y="290" width="60" height="30" as="geometry" />
        </mxCell>
        <mxCell id="l2DXAUE0Y5XsdZJ5gT1E-6" value="B(x&lt;font size=&quot;1&quot;&gt;&lt;sub style=&quot;font-size: 8px;&quot;&gt;2&lt;/sub&gt;&lt;/font&gt;, y&lt;font size=&quot;1&quot;&gt;&lt;sub style=&quot;font-size: 8px;&quot;&gt;2&lt;/sub&gt;&lt;/font&gt;)" style="text;html=1;strokeColor=none;fillColor=none;align=center;verticalAlign=middle;whiteSpace=wrap;rounded=0;" vertex="1" parent="1">
          <mxGeometry x="600" y="560" width="60" height="30" as="geometry" />
        </mxCell>
        <mxCell id="l2DXAUE0Y5XsdZJ5gT1E-9" value="" style="ellipse;whiteSpace=wrap;html=1;fontSize=8;fillColor=#e3c800;strokeColor=#B09500;fontColor=#000000;" vertex="1" parent="1">
          <mxGeometry x="625" y="550" width="10" height="10" as="geometry" />
        </mxCell>
        <mxCell id="l2DXAUE0Y5XsdZJ5gT1E-18" value="" style="curved=1;endArrow=none;html=1;rounded=0;fontSize=8;fontColor=#000000;exitX=0.5;exitY=1;exitDx=0;exitDy=0;endFill=0;strokeWidth=2;fillColor=#60a917;strokeColor=#97D077;" edge="1" parent="1" source="l2DXAUE0Y5XsdZJ5gT1E-8">
          <mxGeometry width="50" height="50" relative="1" as="geometry">
            <mxPoint x="480" y="370" as="sourcePoint" />
            <mxPoint x="630" y="550" as="targetPoint" />
            <Array as="points">
              <mxPoint x="390" y="540" />
            </Array>
          </mxGeometry>
        </mxCell>
        <mxCell id="l2DXAUE0Y5XsdZJ5gT1E-24" value="Brachistochrone" style="text;html=1;strokeColor=none;fillColor=none;align=left;verticalAlign=middle;whiteSpace=wrap;rounded=0;fontSize=12;fontColor=#000000;" vertex="1" parent="1">
          <mxGeometry x="800" y="390" width="120" height="40" as="geometry" />
        </mxCell>
        <mxCell id="l2DXAUE0Y5XsdZJ5gT1E-25" value="" style="endArrow=none;html=1;rounded=0;fontSize=8;fontColor=#7EA6E0;strokeWidth=3;fillColor=#60a917;strokeColor=#97D077;" edge="1" parent="1">
          <mxGeometry width="50" height="50" relative="1" as="geometry">
            <mxPoint x="770" y="410" as="sourcePoint" />
            <mxPoint x="790" y="410" as="targetPoint" />
          </mxGeometry>
        </mxCell>
        <mxCell id="l2DXAUE0Y5XsdZJ5gT1E-8" value="" style="ellipse;whiteSpace=wrap;html=1;fontSize=8;fillColor=#f0a30a;strokeColor=#BD7000;fontColor=#000000;" vertex="1" parent="1">
          <mxGeometry x="376" y="315" width="10" height="10" as="geometry" />
        </mxCell>
        <mxCell id="l2DXAUE0Y5XsdZJ5gT1E-29" value="" style="endArrow=open;html=1;rounded=0;endFill=0;" edge="1" parent="1">
          <mxGeometry width="50" height="50" relative="1" as="geometry">
            <mxPoint x="440" y="480" as="sourcePoint" />
            <mxPoint x="480" y="480" as="targetPoint" />
          </mxGeometry>
        </mxCell>
        <mxCell id="l2DXAUE0Y5XsdZJ5gT1E-30" value="" style="endArrow=open;html=1;rounded=0;endFill=0;" edge="1" parent="1">
          <mxGeometry width="50" height="50" relative="1" as="geometry">
            <mxPoint x="440" y="480" as="sourcePoint" />
            <mxPoint x="440" y="520" as="targetPoint" />
          </mxGeometry>
        </mxCell>
        <mxCell id="l2DXAUE0Y5XsdZJ5gT1E-31" value="" style="endArrow=open;html=1;rounded=0;endFill=0;" edge="1" parent="1">
          <mxGeometry width="50" height="50" relative="1" as="geometry">
            <mxPoint x="440" y="480" as="sourcePoint" />
            <mxPoint x="470" y="520" as="targetPoint" />
          </mxGeometry>
        </mxCell>
        <mxCell id="l2DXAUE0Y5XsdZJ5gT1E-34" value="Sliding Angle" style="text;html=1;strokeColor=none;fillColor=none;align=center;verticalAlign=middle;whiteSpace=wrap;rounded=0;" vertex="1" parent="1">
          <mxGeometry x="490" y="477" width="110" height="30" as="geometry" />
        </mxCell>
        <mxCell id="l2DXAUE0Y5XsdZJ5gT1E-36" value="" style="endArrow=classicThin;html=1;rounded=0;strokeWidth=0.5;endFill=1;" edge="1" parent="1">
          <mxGeometry width="50" height="50" relative="1" as="geometry">
            <mxPoint x="500" y="491.9" as="sourcePoint" />
            <mxPoint x="470" y="491.9" as="targetPoint" />
          </mxGeometry>
        </mxCell>
        <mxCell id="l2DXAUE0Y5XsdZJ5gT1E-37" value="V&lt;sub&gt;x&lt;/sub&gt;" style="text;html=1;strokeColor=none;fillColor=none;align=center;verticalAlign=middle;whiteSpace=wrap;rounded=0;" vertex="1" parent="1">
          <mxGeometry x="450" y="445" width="60" height="30" as="geometry" />
        </mxCell>
        <mxCell id="l2DXAUE0Y5XsdZJ5gT1E-38" value="V&lt;sub&gt;y&lt;/sub&gt;" style="text;html=1;strokeColor=none;fillColor=none;align=center;verticalAlign=middle;whiteSpace=wrap;rounded=0;" vertex="1" parent="1">
          <mxGeometry x="390" y="480" width="60" height="30" as="geometry" />
        </mxCell>
        <mxCell id="l2DXAUE0Y5XsdZJ5gT1E-39" value="V" style="text;html=1;strokeColor=none;fillColor=none;align=center;verticalAlign=middle;whiteSpace=wrap;rounded=0;" vertex="1" parent="1">
          <mxGeometry x="447" y="515" width="60" height="30" as="geometry" />
        </mxCell>
      </root>
    </mxGraphModel>
  </diagram>
  <diagram id="KNVHC6H_YEtdzL_8CI4z" name="Page-2">
    <mxGraphModel dx="773" dy="1582" grid="1" gridSize="10" guides="1" tooltips="1" connect="1" arrows="1" fold="1" page="1" pageScale="1" pageWidth="850" pageHeight="1100" math="0" shadow="0">
      <root>
        <mxCell id="0" />
        <mxCell id="1" parent="0" />
        <mxCell id="avItIs3M0ujvOH9END3A-21" value="" style="ellipse;whiteSpace=wrap;html=1;aspect=fixed;" vertex="1" parent="1">
          <mxGeometry x="420" y="320" width="240" height="240" as="geometry" />
        </mxCell>
        <mxCell id="avItIs3M0ujvOH9END3A-1" value="" style="endArrow=none;html=1;rounded=0;fillColor=#f5f5f5;strokeColor=#666666;startArrow=openThin;startFill=0;endFill=0;" edge="1" parent="1">
          <mxGeometry width="50" height="50" relative="1" as="geometry">
            <mxPoint x="380.0000000000001" y="719.9999999999998" as="sourcePoint" />
            <mxPoint x="380.0000000000001" y="320" as="targetPoint" />
          </mxGeometry>
        </mxCell>
        <mxCell id="avItIs3M0ujvOH9END3A-2" value="" style="endArrow=classic;html=1;rounded=0;fillColor=#f5f5f5;strokeColor=#666666;" edge="1" parent="1">
          <mxGeometry width="50" height="50" relative="1" as="geometry">
            <mxPoint x="380.0000000000001" y="320" as="sourcePoint" />
            <mxPoint x="760" y="320" as="targetPoint" />
          </mxGeometry>
        </mxCell>
        <mxCell id="avItIs3M0ujvOH9END3A-3" value="x" style="text;html=1;strokeColor=none;fillColor=none;align=center;verticalAlign=middle;whiteSpace=wrap;rounded=0;" vertex="1" parent="1">
          <mxGeometry x="710" y="330" width="60" height="30" as="geometry" />
        </mxCell>
        <mxCell id="avItIs3M0ujvOH9END3A-4" value="y" style="text;html=1;strokeColor=none;fillColor=none;align=center;verticalAlign=middle;whiteSpace=wrap;rounded=0;" vertex="1" parent="1">
          <mxGeometry x="320" y="320" width="60" height="30" as="geometry" />
        </mxCell>
        <mxCell id="avItIs3M0ujvOH9END3A-5" value="A(x&lt;font size=&quot;1&quot;&gt;&lt;sub style=&quot;font-size: 8px;&quot;&gt;1&lt;/sub&gt;&lt;/font&gt;, y&lt;font size=&quot;1&quot;&gt;&lt;sub style=&quot;font-size: 8px;&quot;&gt;1&lt;/sub&gt;&lt;/font&gt;)" style="text;html=1;strokeColor=none;fillColor=none;align=center;verticalAlign=middle;whiteSpace=wrap;rounded=0;" vertex="1" parent="1">
          <mxGeometry x="350" y="290" width="60" height="30" as="geometry" />
        </mxCell>
        <mxCell id="avItIs3M0ujvOH9END3A-6" value="B(x&lt;font size=&quot;1&quot;&gt;&lt;sub style=&quot;font-size: 8px;&quot;&gt;2&lt;/sub&gt;&lt;/font&gt;, y&lt;font size=&quot;1&quot;&gt;&lt;sub style=&quot;font-size: 8px;&quot;&gt;2&lt;/sub&gt;&lt;/font&gt;)" style="text;html=1;strokeColor=none;fillColor=none;align=center;verticalAlign=middle;whiteSpace=wrap;rounded=0;" vertex="1" parent="1">
          <mxGeometry x="680" y="560" width="60" height="30" as="geometry" />
        </mxCell>
        <mxCell id="avItIs3M0ujvOH9END3A-7" value="" style="ellipse;whiteSpace=wrap;html=1;fontSize=8;fillColor=#e3c800;strokeColor=#B09500;fontColor=#000000;" vertex="1" parent="1">
          <mxGeometry x="700" y="550" width="10" height="10" as="geometry" />
        </mxCell>
        <mxCell id="avItIs3M0ujvOH9END3A-8" value="" style="curved=1;endArrow=none;html=1;rounded=0;fontSize=8;fontColor=#000000;exitX=0.5;exitY=1;exitDx=0;exitDy=0;endFill=0;strokeWidth=2;fillColor=#60a917;strokeColor=#97D077;entryX=0;entryY=0.5;entryDx=0;entryDy=0;" edge="1" parent="1" source="avItIs3M0ujvOH9END3A-11" target="avItIs3M0ujvOH9END3A-7">
          <mxGeometry width="50" height="50" relative="1" as="geometry">
            <mxPoint x="480" y="370" as="sourcePoint" />
            <mxPoint x="630" y="550" as="targetPoint" />
            <Array as="points">
              <mxPoint x="390" y="540" />
            </Array>
          </mxGeometry>
        </mxCell>
        <mxCell id="avItIs3M0ujvOH9END3A-9" value="Brachistochrone" style="text;html=1;strokeColor=none;fillColor=none;align=left;verticalAlign=middle;whiteSpace=wrap;rounded=0;fontSize=12;fontColor=#000000;" vertex="1" parent="1">
          <mxGeometry x="800" y="390" width="120" height="40" as="geometry" />
        </mxCell>
        <mxCell id="avItIs3M0ujvOH9END3A-10" value="" style="endArrow=none;html=1;rounded=0;fontSize=8;fontColor=#7EA6E0;strokeWidth=3;fillColor=#60a917;strokeColor=#97D077;" edge="1" parent="1">
          <mxGeometry width="50" height="50" relative="1" as="geometry">
            <mxPoint x="770" y="410" as="sourcePoint" />
            <mxPoint x="790" y="410" as="targetPoint" />
          </mxGeometry>
        </mxCell>
        <mxCell id="avItIs3M0ujvOH9END3A-11" value="" style="ellipse;whiteSpace=wrap;html=1;fontSize=8;fillColor=#f0a30a;strokeColor=#BD7000;fontColor=#000000;" vertex="1" parent="1">
          <mxGeometry x="376" y="315" width="10" height="10" as="geometry" />
        </mxCell>
        <mxCell id="avItIs3M0ujvOH9END3A-23" value="" style="endArrow=none;html=1;rounded=0;strokeWidth=0.5;entryX=0.5;entryY=1;entryDx=0;entryDy=0;exitX=0.5;exitY=0;exitDx=0;exitDy=0;" edge="1" parent="1" source="avItIs3M0ujvOH9END3A-21" target="avItIs3M0ujvOH9END3A-21">
          <mxGeometry width="50" height="50" relative="1" as="geometry">
            <mxPoint x="490" y="430" as="sourcePoint" />
            <mxPoint x="540" y="380" as="targetPoint" />
          </mxGeometry>
        </mxCell>
        <mxCell id="avItIs3M0ujvOH9END3A-24" value="" style="endArrow=none;html=1;rounded=0;strokeWidth=1;exitX=0.002;exitY=0.533;exitDx=0;exitDy=0;exitPerimeter=0;" edge="1" parent="1" source="avItIs3M0ujvOH9END3A-21">
          <mxGeometry width="50" height="50" relative="1" as="geometry">
            <mxPoint x="400" y="450" as="sourcePoint" />
            <mxPoint x="540" y="320" as="targetPoint" />
          </mxGeometry>
        </mxCell>
        <mxCell id="avItIs3M0ujvOH9END3A-26" value="" style="endArrow=none;html=1;rounded=0;strokeWidth=1;exitX=0.5;exitY=1;exitDx=0;exitDy=0;entryX=0.001;entryY=0.533;entryDx=0;entryDy=0;entryPerimeter=0;" edge="1" parent="1" source="avItIs3M0ujvOH9END3A-21" target="avItIs3M0ujvOH9END3A-21">
          <mxGeometry width="50" height="50" relative="1" as="geometry">
            <mxPoint x="340" y="510" as="sourcePoint" />
            <mxPoint x="410" y="460" as="targetPoint" />
          </mxGeometry>
        </mxCell>
        <mxCell id="avItIs3M0ujvOH9END3A-27" value="" style="endArrow=none;html=1;rounded=0;strokeWidth=1;entryX=0.002;entryY=0.534;entryDx=0;entryDy=0;entryPerimeter=0;" edge="1" parent="1" target="avItIs3M0ujvOH9END3A-21">
          <mxGeometry width="50" height="50" relative="1" as="geometry">
            <mxPoint x="420" y="320" as="sourcePoint" />
            <mxPoint x="420" y="450" as="targetPoint" />
          </mxGeometry>
        </mxCell>
        <mxCell id="avItIs3M0ujvOH9END3A-28" value="" style="verticalLabelPosition=bottom;verticalAlign=top;html=1;shape=mxgraph.basic.arc;startAngle=0.9403676348913917;endAngle=0.983978086394683;fillColor=#d80073;strokeColor=#A50040;fontColor=#ffffff;" vertex="1" parent="1">
          <mxGeometry x="375" y="420" width="100" height="100" as="geometry" />
        </mxCell>
        <mxCell id="avItIs3M0ujvOH9END3A-29" value="&lt;span&gt;θ &lt;/span&gt;" style="text;html=1;strokeColor=none;fillColor=none;align=center;verticalAlign=middle;whiteSpace=wrap;rounded=0;" vertex="1" parent="1">
          <mxGeometry x="380" y="380" width="60" height="30" as="geometry" />
        </mxCell>
        <mxCell id="avItIs3M0ujvOH9END3A-32" value="" style="endArrow=none;html=1;rounded=0;strokeWidth=1;" edge="1" parent="1">
          <mxGeometry width="50" height="50" relative="1" as="geometry">
            <mxPoint x="420" y="450" as="sourcePoint" />
            <mxPoint x="540" y="440" as="targetPoint" />
          </mxGeometry>
        </mxCell>
        <mxCell id="avItIs3M0ujvOH9END3A-34" value="" style="verticalLabelPosition=bottom;verticalAlign=top;html=1;shape=mxgraph.basic.arc;startAngle=0.929667536360251;endAngle=0.14332427304970616;fillColor=#d80073;strokeColor=#A50040;fontColor=#ffffff;rotation=-55;" vertex="1" parent="1">
          <mxGeometry x="522.87" y="428.51" width="34" height="27" as="geometry" />
        </mxCell>
        <mxCell id="avItIs3M0ujvOH9END3A-36" value="" style="verticalLabelPosition=bottom;verticalAlign=top;html=1;shape=mxgraph.basic.arc;startAngle=0.9403676348913917;endAngle=0.983978086394683;fillColor=#d80073;strokeColor=#A50040;fontColor=#ffffff;" vertex="1" parent="1">
          <mxGeometry x="496" y="544" width="100" height="100" as="geometry" />
        </mxCell>
        <mxCell id="avItIs3M0ujvOH9END3A-37" value="&lt;span&gt;θ &lt;/span&gt;" style="text;html=1;strokeColor=none;fillColor=none;align=center;verticalAlign=middle;whiteSpace=wrap;rounded=0;" vertex="1" parent="1">
          <mxGeometry x="497.87" y="521" width="60" height="30" as="geometry" />
        </mxCell>
        <mxCell id="avItIs3M0ujvOH9END3A-38" value="R" style="text;html=1;strokeColor=none;fillColor=none;align=center;verticalAlign=middle;whiteSpace=wrap;rounded=0;fontColor=#000000;" vertex="1" parent="1">
          <mxGeometry x="522.87" y="360" width="60" height="30" as="geometry" />
        </mxCell>
        <mxCell id="avItIs3M0ujvOH9END3A-39" value="R" style="text;html=1;strokeColor=none;fillColor=none;align=center;verticalAlign=middle;whiteSpace=wrap;rounded=0;" vertex="1" parent="1">
          <mxGeometry x="522.87" y="480" width="60" height="30" as="geometry" />
        </mxCell>
        <mxCell id="avItIs3M0ujvOH9END3A-40" value="R" style="text;html=1;strokeColor=none;fillColor=none;align=center;verticalAlign=middle;whiteSpace=wrap;rounded=0;" vertex="1" parent="1">
          <mxGeometry x="450" y="420" width="60" height="30" as="geometry" />
        </mxCell>
        <mxCell id="avItIs3M0ujvOH9END3A-41" value="M" style="text;html=1;strokeColor=none;fillColor=none;align=center;verticalAlign=middle;whiteSpace=wrap;rounded=0;fontColor=#A680B8;" vertex="1" parent="1">
          <mxGeometry x="375" y="443.51" width="60" height="30" as="geometry" />
        </mxCell>
        <mxCell id="avItIs3M0ujvOH9END3A-42" value="" style="ellipse;whiteSpace=wrap;html=1;fontSize=8;fillColor=#B7A3BF;strokeColor=#A680B8;fontColor=#A680B8;" vertex="1" parent="1">
          <mxGeometry x="415" y="443.51" width="10" height="10" as="geometry" />
        </mxCell>
        <mxCell id="avItIs3M0ujvOH9END3A-43" value="O" style="text;html=1;strokeColor=none;fillColor=none;align=center;verticalAlign=middle;whiteSpace=wrap;rounded=0;labelBackgroundColor=default;fontColor=#A680B8;" vertex="1" parent="1">
          <mxGeometry x="522.87" y="420" width="60" height="30" as="geometry" />
        </mxCell>
        <mxCell id="avItIs3M0ujvOH9END3A-44" value="F" style="text;html=1;strokeColor=none;fillColor=none;align=center;verticalAlign=middle;whiteSpace=wrap;rounded=0;fontColor=#A680B8;" vertex="1" parent="1">
          <mxGeometry x="510" y="290" width="60" height="30" as="geometry" />
        </mxCell>
        <mxCell id="avItIs3M0ujvOH9END3A-45" value="D" style="text;html=1;strokeColor=none;fillColor=none;align=center;verticalAlign=middle;whiteSpace=wrap;rounded=0;fontColor=#A680B8;" vertex="1" parent="1">
          <mxGeometry x="522.87" y="535" width="60" height="30" as="geometry" />
        </mxCell>
        <mxCell id="avItIs3M0ujvOH9END3A-46" value="" style="ellipse;whiteSpace=wrap;html=1;fontSize=8;fillColor=#B7A3BF;strokeColor=#A680B8;fontColor=#A680B8;" vertex="1" parent="1">
          <mxGeometry x="534.87" y="433.51" width="10" height="10" as="geometry" />
        </mxCell>
        <mxCell id="avItIs3M0ujvOH9END3A-47" value="" style="ellipse;whiteSpace=wrap;html=1;fontSize=8;fillColor=#B7A3BF;strokeColor=#A680B8;fontColor=#A680B8;" vertex="1" parent="1">
          <mxGeometry x="534.87" y="315" width="10" height="10" as="geometry" />
        </mxCell>
        <mxCell id="avItIs3M0ujvOH9END3A-48" value="" style="ellipse;whiteSpace=wrap;html=1;fontSize=8;fillColor=#B7A3BF;strokeColor=#A680B8;fontColor=#A680B8;" vertex="1" parent="1">
          <mxGeometry x="534.87" y="555" width="10" height="10" as="geometry" />
        </mxCell>
        <mxCell id="avItIs3M0ujvOH9END3A-50" value="" style="verticalLabelPosition=bottom;verticalAlign=top;html=1;shape=mxgraph.basic.arc;startAngle=0.5063628056739959;endAngle=0.6127813740139013;fillColor=#d80073;strokeColor=#A50040;fontColor=#ffffff;" vertex="1" parent="1">
          <mxGeometry x="505" y="267.13" width="52.87" height="62.87" as="geometry" />
        </mxCell>
      </root>
    </mxGraphModel>
  </diagram>
</mxfile>
